<svg width="481" height="260" viewBox="0 0 481 260" fill="none" xmlns="http://www.w3.org/2000/svg">
<g filter="url(#filter0_bdi_131_10406)">
<rect x="20" width="441" height="216" rx="32" fill="#F8F8F8" fill-opacity="0.05" shape-rendering="crispEdges"/>
<rect x="20.5" y="0.5" width="440" height="215" rx="31.5" stroke="#F8F8F8" stroke-opacity="0.02" shape-rendering="crispEdges"/>
<path opacity="0.5" d="M45.188 28C45.1 28 45.028 27.972 44.972 27.916C44.916 27.86 44.888 27.788 44.888 27.7V19.9C44.888 19.812 44.916 19.74 44.972 19.684C45.028 19.628 45.1 19.6 45.188 19.6H46.544C46.632 19.6 46.704 19.628 46.76 19.684C46.816 19.74 46.844 19.812 46.844 19.9V27.7C46.844 27.788 46.816 27.86 46.76 27.916C46.704 27.972 46.632 28 46.544 28H45.188ZM51.2546 28.12C50.6706 28.12 50.1546 28.012 49.7066 27.796C49.2666 27.58 48.9186 27.268 48.6626 26.86C48.4066 26.444 48.2666 25.948 48.2426 25.372C48.2346 25.244 48.2306 25.084 48.2306 24.892C48.2306 24.692 48.2346 24.528 48.2426 24.4C48.2666 23.816 48.4026 23.32 48.6506 22.912C48.9066 22.496 49.2586 22.18 49.7066 21.964C50.1546 21.748 50.6706 21.64 51.2546 21.64C51.7906 21.64 52.2466 21.716 52.6226 21.868C52.9986 22.012 53.3066 22.196 53.5466 22.42C53.7866 22.644 53.9626 22.88 54.0746 23.128C54.1946 23.368 54.2586 23.58 54.2666 23.764C54.2746 23.844 54.2466 23.916 54.1826 23.98C54.1266 24.036 54.0586 24.064 53.9786 24.064H52.6946C52.6146 24.064 52.5506 24.044 52.5026 24.004C52.4626 23.956 52.4226 23.892 52.3826 23.812C52.2706 23.532 52.1266 23.332 51.9506 23.212C51.7746 23.092 51.5546 23.032 51.2906 23.032C50.9306 23.032 50.6466 23.148 50.4386 23.38C50.2306 23.612 50.1186 23.972 50.1026 24.46C50.0946 24.772 50.0946 25.056 50.1026 25.312C50.1266 25.808 50.2386 26.168 50.4386 26.392C50.6466 26.616 50.9306 26.728 51.2906 26.728C51.5706 26.728 51.7946 26.668 51.9626 26.548C52.1306 26.428 52.2706 26.228 52.3826 25.948C52.4146 25.868 52.4546 25.808 52.5026 25.768C52.5506 25.72 52.6146 25.696 52.6946 25.696H53.9786C54.0586 25.696 54.1266 25.728 54.1826 25.792C54.2466 25.848 54.2746 25.916 54.2666 25.996C54.2586 26.132 54.2186 26.292 54.1466 26.476C54.0826 26.66 53.9746 26.848 53.8226 27.04C53.6786 27.232 53.4906 27.412 53.2586 27.58C53.0266 27.74 52.7426 27.872 52.4066 27.976C52.0786 28.072 51.6946 28.12 51.2546 28.12ZM58.2995 28.12C57.6355 28.12 57.0795 28.012 56.6315 27.796C56.1835 27.572 55.8395 27.256 55.5995 26.848C55.3675 26.44 55.2395 25.964 55.2155 25.42C55.2075 25.26 55.2035 25.08 55.2035 24.88C55.2035 24.672 55.2075 24.492 55.2155 24.34C55.2395 23.788 55.3755 23.312 55.6235 22.912C55.8715 22.504 56.2195 22.192 56.6675 21.976C57.1155 21.752 57.6595 21.64 58.2995 21.64C58.9315 21.64 59.4715 21.752 59.9195 21.976C60.3675 22.192 60.7155 22.504 60.9635 22.912C61.2115 23.312 61.3475 23.788 61.3715 24.34C61.3875 24.492 61.3955 24.672 61.3955 24.88C61.3955 25.08 61.3875 25.26 61.3715 25.42C61.3475 25.964 61.2155 26.44 60.9755 26.848C60.7435 27.256 60.4035 27.572 59.9555 27.796C59.5075 28.012 58.9555 28.12 58.2995 28.12ZM58.2995 26.8C58.6915 26.8 58.9875 26.68 59.1875 26.44C59.3875 26.192 59.4955 25.832 59.5115 25.36C59.5195 25.24 59.5235 25.08 59.5235 24.88C59.5235 24.68 59.5195 24.52 59.5115 24.4C59.4955 23.936 59.3875 23.58 59.1875 23.332C58.9875 23.084 58.6915 22.96 58.2995 22.96C57.9075 22.96 57.6075 23.084 57.3995 23.332C57.1995 23.58 57.0915 23.936 57.0755 24.4C57.0675 24.52 57.0635 24.68 57.0635 24.88C57.0635 25.08 57.0675 25.24 57.0755 25.36C57.0915 25.832 57.1995 26.192 57.3995 26.44C57.6075 26.68 57.9075 26.8 58.2995 26.8ZM62.9385 28C62.8585 28 62.7905 27.972 62.7345 27.916C62.6785 27.86 62.6505 27.788 62.6505 27.7V22.06C62.6505 21.972 62.6785 21.9 62.7345 21.844C62.7905 21.788 62.8585 21.76 62.9385 21.76H64.1145C64.2025 21.76 64.2745 21.788 64.3305 21.844C64.3865 21.9 64.4145 21.972 64.4145 22.06V22.528C64.6225 22.272 64.8905 22.06 65.2185 21.892C65.5465 21.724 65.9465 21.64 66.4185 21.64C66.8905 21.64 67.3025 21.748 67.6545 21.964C68.0145 22.172 68.2945 22.48 68.4945 22.888C68.7025 23.288 68.8065 23.776 68.8065 24.352V27.7C68.8065 27.788 68.7745 27.86 68.7105 27.916C68.6545 27.972 68.5865 28 68.5065 28H67.2345C67.1465 28 67.0745 27.972 67.0185 27.916C66.9625 27.86 66.9345 27.788 66.9345 27.7V24.424C66.9345 24 66.8305 23.672 66.6225 23.44C66.4225 23.2 66.1265 23.08 65.7345 23.08C65.3585 23.08 65.0585 23.2 64.8345 23.44C64.6105 23.672 64.4985 24 64.4985 24.424V27.7C64.4985 27.788 64.4705 27.86 64.4145 27.916C64.3585 27.972 64.2905 28 64.2105 28H62.9385Z" fill="#F8F8F8" fill-opacity="0.5"/>
<g filter="url(#filter1_bi_131_10406)">
<rect x="32" y="36" width="44" height="44" rx="22" fill="#F8F8F8" fill-opacity="0.1"/>
<path d="M59.5 58C59.5 61.0376 57.0376 63.5 54 63.5C50.9624 63.5 48.5 61.0376 48.5 58M63.25 58C63.25 63.1086 59.1086 67.25 54 67.25C48.8914 67.25 44.75 63.1086 44.75 58C44.75 52.8914 48.8914 48.75 54 48.75C59.1086 48.75 63.25 52.8914 63.25 58Z" stroke="#F8F8F8" stroke-opacity="0.95" stroke-width="1.5" stroke-linecap="round" stroke-linejoin="round"/>
<path d="M53 55C53 55.8284 52.3284 56.5 51.5 56.5C50.6716 56.5 50 55.8284 50 55C50 54.1716 50.6716 53.5 51.5 53.5C52.3284 53.5 53 54.1716 53 55Z" fill="#F8F8F8" fill-opacity="0.7"/>
<path d="M58 55C58 55.8284 57.3284 56.5 56.5 56.5C55.6716 56.5 55 55.8284 55 55C55 54.1716 55.6716 53.5 56.5 53.5C57.3284 53.5 58 54.1716 58 55Z" fill="#F8F8F8" fill-opacity="0.7"/>
</g>
<g filter="url(#filter2_bi_131_10406)">
<g opacity="0.8">
<path d="M88.75 51.75H94M94 51.75H99.25M94 51.75V64.25M102.75 48.75H105M105 48.75H107.25M105 48.75V67.25M105 67.25H102.75M105 67.25H107.25" stroke="#F8F8F8" stroke-opacity="0.5" stroke-width="1.5" stroke-linecap="round" stroke-linejoin="round"/>
</g>
</g>
<g opacity="0.8">
<path d="M138.96 49.7369L139.435 50.3174L138.96 49.7369ZM141.187 48.2384L141.391 48.9603L141.187 48.2384ZM145.04 49.7369L145.514 49.1565H145.514L145.04 49.7369ZM142.813 48.2384L142.609 48.9603L142.813 48.2384ZM135.388 65.9231L135.048 66.5913L135.388 65.9231ZM133.75 61.45H134.5H133.75ZM134.077 64.612L133.409 64.9525L134.077 64.612ZM149.923 64.612L150.591 64.9525L149.923 64.612ZM148.612 65.9231L148.952 66.5913L148.612 65.9231ZM150.145 54.6344L149.421 54.8313L150.145 54.6344ZM148.49 52.5597L148.015 53.1401L148.015 53.1401L148.49 52.5597ZM149.692 53.6797L149.082 54.1152L149.692 53.6797ZM133.75 56.2747H133H133.75ZM133.855 54.6344L134.579 54.8313L133.855 54.6344ZM135.51 52.5597L135.985 53.1401L135.51 52.5597ZM134.308 53.6797L134.918 54.1152L134.308 53.6797ZM137.75 61.5C137.336 61.5 137 61.8358 137 62.25C137 62.6643 137.336 63 137.75 63V61.5ZM146.25 63C146.664 63 147 62.6643 147 62.25C147 61.8358 146.664 61.5 146.25 61.5V63ZM149.5 56.2747V61.45H151V56.2747H149.5ZM145.45 65.5H138.55V67H145.45V65.5ZM134.5 61.45V56.2747H133V61.45H134.5ZM135.985 53.1401L139.435 50.3174L138.486 49.1565L135.036 51.9792L135.985 53.1401ZM144.565 50.3174L148.015 53.1401L148.964 51.9792L145.514 49.1565L144.565 50.3174ZM139.435 50.3174C139.985 49.8674 140.367 49.556 140.685 49.333C140.995 49.1154 141.202 49.0133 141.391 48.9603L140.984 47.5164C140.57 47.633 140.205 47.8371 139.823 48.1049C139.449 48.3673 139.018 48.7205 138.486 49.1565L139.435 50.3174ZM145.514 49.1565C144.982 48.7205 144.551 48.3673 144.177 48.1049C143.795 47.8371 143.43 47.633 143.016 47.5164L142.609 48.9603C142.798 49.0133 143.005 49.1154 143.315 49.333C143.633 49.556 144.015 49.8674 144.565 50.3174L145.514 49.1565ZM141.391 48.9603C141.789 48.8482 142.211 48.8482 142.609 48.9603L143.016 47.5164C142.351 47.3295 141.649 47.3295 140.984 47.5164L141.391 48.9603ZM138.55 65.5C137.698 65.5 137.103 65.4995 136.641 65.4617C136.187 65.4246 135.926 65.3554 135.729 65.2548L135.048 66.5913C135.492 66.8177 135.972 66.912 136.519 66.9567C137.056 67.0006 137.722 67 138.55 67V65.5ZM133 61.45C133 62.2777 132.999 62.9436 133.043 63.4815C133.088 64.0281 133.182 64.5083 133.409 64.9525L134.745 64.2715C134.645 64.074 134.575 63.8132 134.538 63.3594C134.501 62.8967 134.5 62.3025 134.5 61.45H133ZM135.729 65.2548C135.305 65.0391 134.961 64.6949 134.745 64.2715L133.409 64.9525C133.768 65.6581 134.342 66.2318 135.048 66.5913L135.729 65.2548ZM149.5 61.45C149.5 62.3025 149.499 62.8967 149.462 63.3594C149.425 63.8132 149.355 64.074 149.255 64.2715L150.591 64.9525C150.818 64.5083 150.912 64.0281 150.957 63.4815C151.001 62.9436 151 62.2777 151 61.45H149.5ZM145.45 67C146.278 67 146.944 67.0006 147.481 66.9567C148.028 66.912 148.508 66.8177 148.952 66.5913L148.271 65.2548C148.074 65.3554 147.813 65.4246 147.359 65.4617C146.897 65.4995 146.302 65.5 145.45 65.5V67ZM149.255 64.2715C149.039 64.6949 148.695 65.0391 148.271 65.2548L148.952 66.5913C149.658 66.2318 150.232 65.6581 150.591 64.9525L149.255 64.2715ZM151 56.2747C151 55.48 151.006 54.9435 150.869 54.4376L149.421 54.8313C149.494 55.0986 149.5 55.3978 149.5 56.2747H151ZM148.015 53.1401C148.693 53.6954 148.921 53.8896 149.082 54.1152L150.303 53.2442C149.999 52.8174 149.579 52.4824 148.964 51.9792L148.015 53.1401ZM150.869 54.4376C150.752 54.0095 150.561 53.6054 150.303 53.2442L149.082 54.1152C149.236 54.3319 149.351 54.5744 149.421 54.8313L150.869 54.4376ZM134.5 56.2747C134.5 55.3978 134.506 55.0986 134.579 54.8313L133.131 54.4376C132.994 54.9435 133 55.48 133 56.2747H134.5ZM135.036 51.9792C134.421 52.4824 134.001 52.8174 133.697 53.2442L134.918 54.1152C135.079 53.8896 135.307 53.6954 135.985 53.1401L135.036 51.9792ZM134.579 54.8313C134.649 54.5744 134.764 54.3319 134.918 54.1152L133.697 53.2442C133.439 53.6054 133.248 54.0095 133.131 54.4376L134.579 54.8313ZM137.75 63H146.25V61.5H137.75V63Z" fill="#F8F8F8" fill-opacity="0.5"/>
</g>
<g opacity="0.8">
<path d="M176.25 56.75L179.119 52.16C179.667 51.2829 180.628 50.75 181.663 50.75H190.337C191.372 50.75 192.333 51.2829 192.881 52.16L195.75 56.75M176.25 56.75H174.75M176.25 56.75V63.5C176.25 64.4665 177.034 65.25 178 65.25C178.966 65.25 179.75 64.4665 179.75 63.5V63.1786H192.25V63.5C192.25 64.4665 193.034 65.25 194 65.25C194.966 65.25 195.75 64.4665 195.75 63.5V56.75M195.75 56.75H197.25M179.75 59.0357H181.75M190.25 59.0357H192.25" stroke="#F8F8F8" stroke-opacity="0.5" stroke-width="1.5" stroke-linecap="round" stroke-linejoin="round"/>
</g>
<g opacity="0.8">
<path d="M230 67.2505C234.28 67.2505 237.75 63.5005 237.75 59.0005C237.75 53.8335 233.137 50.1716 231.279 48.9063C230.853 48.6164 230.291 48.7418 229.994 49.163L227.582 52.5913C227.225 53.0979 226.497 53.1596 226.057 52.723C225.667 52.3354 225.031 52.3312 224.681 52.7553C223.06 54.718 222.25 57.1619 222.25 59.0005C222.25 63.5005 225.72 67.2505 230 67.2505ZM230 67.2505C231.657 67.2505 233 65.7173 233 63.8261C233 61.7429 231.337 60.2253 230.487 59.5858C230.195 59.3661 229.805 59.3661 229.513 59.5858C228.663 60.2253 227 61.7429 227 63.8261C227 65.7173 228.343 67.2505 230 67.2505Z" stroke="#F8F8F8" stroke-opacity="0.5" stroke-width="1.5" stroke-linejoin="round"/>
</g>
<g opacity="0.8">
<path d="M271.25 55.25V52.5C271.25 50.9812 270.019 49.75 268.5 49.75C266.981 49.75 265.75 50.9812 265.75 52.5C265.75 54.0188 266.981 55.25 268.5 55.25H271.25ZM271.25 55.25H276.75M271.25 55.25V60.75M276.75 55.25V52.5C276.75 50.9812 277.981 49.75 279.5 49.75C281.019 49.75 282.25 50.9812 282.25 52.5C282.25 54.0188 281.019 55.25 279.5 55.25H276.75ZM276.75 55.25V60.75M276.75 60.75H271.25M276.75 60.75V63.5C276.75 65.0188 277.981 66.25 279.5 66.25C281.019 66.25 282.25 65.0188 282.25 63.5C282.25 61.9812 281.019 60.75 279.5 60.75H276.75ZM271.25 60.75V63.5C271.25 65.0188 270.019 66.25 268.5 66.25C266.981 66.25 265.75 65.0188 265.75 63.5C265.75 61.9812 266.981 60.75 268.5 60.75H271.25Z" stroke="#F8F8F8" stroke-opacity="0.5" stroke-width="1.5" stroke-linecap="square"/>
</g>
<g opacity="0.8">
<path d="M317.852 59.2513C314.534 59.3088 312.021 61.3058 310.982 64.1129C310.574 65.2182 311.518 66.25 312.697 66.25H317.5M317.852 59.2513C317.901 59.2504 317.951 59.25 318 59.25C318.352 59.25 318.695 59.2717 319.029 59.3138M317.852 59.2513C317.202 59.2626 316.583 59.3483 316 59.5M319.029 59.3138C319.363 59.3559 319.687 59.4184 320 59.5M319.029 59.3138C319.731 59.4024 320.39 59.5812 321 59.838M320.75 64.6L322.95 66.25L326.25 60.75M321.75 52.5C321.75 54.5711 320.071 56.25 318 56.25C315.929 56.25 314.25 54.5711 314.25 52.5C314.25 50.4289 315.929 48.75 318 48.75C320.071 48.75 321.75 50.4289 321.75 52.5Z" stroke="#F8F8F8" stroke-opacity="0.5" stroke-width="1.5" stroke-linecap="round" stroke-linejoin="round"/>
</g>
<g opacity="0.8">
<path d="M352.791 58.1075C351.471 58.8201 350.745 59.464 350.867 59.9192C351.161 61.0158 356.264 60.6011 362.265 58.993C368.267 57.3849 372.894 55.1923 372.6 54.0958C372.478 53.6406 371.528 53.4458 370.028 53.4887M352.791 58.1075C352.802 58.8595 352.905 59.6226 353.109 60.3825C354.431 65.3171 359.483 68.2508 364.394 66.935C369.304 65.6193 372.213 60.5525 370.89 55.6179C370.687 54.858 370.395 54.1455 370.028 53.4887M352.791 58.1075C352.73 53.9763 355.451 50.1785 359.605 49.0654C363.759 47.9523 368.015 49.8805 370.028 53.4887" stroke="#F8F8F8" stroke-opacity="0.5" stroke-width="1.5"/>
</g>
<g opacity="0.8">
<path d="M405.25 48.75V53.25M409.25 48.75V53.25M398.75 53.9926V64.25C398.75 65.9069 400.093 67.25 401.75 67.25H410.25C411.907 67.25 413.25 65.9069 413.25 64.25V51.75C413.25 50.0931 411.907 48.75 410.25 48.75H403.993C403.197 48.75 402.434 49.0661 401.871 49.6287L399.629 51.8713C399.066 52.4339 398.75 53.197 398.75 53.9926Z" stroke="#F8F8F8" stroke-opacity="0.5" stroke-width="1.5" stroke-linecap="round" stroke-linejoin="round"/>
</g>
<g opacity="0.8">
<path d="M58.75 109.25H60.25C61.9069 109.25 63.25 107.907 63.25 106.25V103.964C63.25 102.307 61.9069 100.964 60.25 100.964H59.75V94.75C59.75 94.75 55.75 96.3036 55.75 100.964V106.25C55.75 107.907 57.0931 109.25 58.75 109.25Z" stroke="#F8F8F8" stroke-opacity="0.5" stroke-width="1.5" stroke-linejoin="round"/>
<path d="M47.75 109.25H49.25C50.9069 109.25 52.25 107.907 52.25 106.25V103.964C52.25 102.307 50.9069 100.964 49.25 100.964H48.75V94.75C48.75 94.75 44.75 96.3036 44.75 100.964V106.25C44.75 107.907 46.0931 109.25 47.75 109.25Z" stroke="#F8F8F8" stroke-opacity="0.5" stroke-width="1.5" stroke-linejoin="round"/>
</g>
<g opacity="0.8">
<path d="M98 95.5719C104.333 89.1323 115.19 101.092 98 110.75C80.8102 101.092 91.6669 89.1323 98 95.5719Z" stroke="#F8F8F8" stroke-opacity="0.5" stroke-width="1.5" stroke-linejoin="round"/>
</g>
<g opacity="0.8">
<path d="M135.879 104.121L136.409 104.652H136.409L135.879 104.121ZM136.75 94.5H147.25V93H136.75V94.5ZM149.5 96.75V107.25H151V96.75H149.5ZM134.28 106.78L136.409 104.652L135.348 103.591L133.22 105.72L134.28 106.78ZM134.5 107.25V106.25H133V107.25H134.5ZM134.5 106.25V96.75H133V106.25H134.5ZM139.591 104.652L145.72 110.78L146.78 109.72L140.652 103.591L139.591 104.652ZM147.25 109.5H146.25V111H147.25V109.5ZM146.25 109.5H136.75V111H146.25V109.5ZM136.409 104.652C137.288 103.773 138.712 103.773 139.591 104.652L140.652 103.591C139.187 102.127 136.813 102.127 135.348 103.591L136.409 104.652ZM133 107.25C133 109.321 134.679 111 136.75 111V109.5C135.507 109.5 134.5 108.493 134.5 107.25H133ZM149.5 107.25C149.5 108.493 148.493 109.5 147.25 109.5V111C149.321 111 151 109.321 151 107.25H149.5ZM147.25 94.5C148.493 94.5 149.5 95.5074 149.5 96.75H151C151 94.6789 149.321 93 147.25 93V94.5ZM136.75 93C134.679 93 133 94.6789 133 96.75H134.5C134.5 95.5074 135.507 94.5 136.75 94.5V93ZM145.75 99.5C145.75 100.19 145.19 100.75 144.5 100.75V102.25C146.019 102.25 147.25 101.019 147.25 99.5H145.75ZM144.5 100.75C143.81 100.75 143.25 100.19 143.25 99.5H141.75C141.75 101.019 142.981 102.25 144.5 102.25V100.75ZM143.25 99.5C143.25 98.8096 143.81 98.25 144.5 98.25V96.75C142.981 96.75 141.75 97.9812 141.75 99.5H143.25ZM144.5 98.25C145.19 98.25 145.75 98.8096 145.75 99.5H147.25C147.25 97.9812 146.019 96.75 144.5 96.75V98.25Z" fill="#F8F8F8" fill-opacity="0.5"/>
</g>
<g opacity="0.8">
<path d="M189.397 107.458C190.394 107.173 191.173 106.394 191.458 105.397L194.258 95.596C194.581 94.4645 193.535 93.4184 192.404 93.7417L182.602 96.5421C181.606 96.8268 180.827 97.6059 180.542 98.6025L177.742 108.404C177.418 109.535 178.465 110.581 179.596 110.258L189.397 107.458Z" stroke="#F8F8F8" stroke-opacity="0.5" stroke-width="1.5" stroke-linejoin="round"/>
<path d="M188 102C188 103.105 187.105 104 186 104C184.895 104 184 103.105 184 102C184 100.895 184.895 99.9999 186 99.9999C187.105 99.9999 188 100.895 188 102Z" stroke="#F8F8F8" stroke-opacity="0.5" stroke-width="1.5" stroke-linejoin="round"/>
</g>
<g opacity="0.8">
<path d="M229.086 92.3227C229.453 91.5591 230.547 91.5591 230.914 92.3227L233.087 96.8391C233.235 97.1465 233.529 97.3588 233.869 97.4032L238.868 98.0566C239.713 98.1672 240.052 99.2039 239.432 99.787L235.779 103.226C235.53 103.461 235.417 103.806 235.479 104.142L236.397 109.056C236.553 109.889 235.668 110.529 234.918 110.126L230.482 107.738C230.181 107.576 229.819 107.576 229.518 107.738L225.082 110.126C224.332 110.529 223.447 109.889 223.603 109.056L224.521 104.142C224.583 103.806 224.47 103.461 224.221 103.226L220.568 99.787C219.948 99.2039 220.287 98.1672 221.132 98.0566L226.131 97.4032C226.471 97.3588 226.765 97.1465 226.913 96.8391L229.086 92.3227Z" stroke="#F8F8F8" stroke-opacity="0.5" stroke-width="1.5" stroke-linecap="round" stroke-linejoin="round"/>
</g>
<path opacity="0.5" d="M48.224 152.12C47.472 152.12 46.832 151.996 46.304 151.748C45.784 151.492 45.38 151.124 45.092 150.644C44.804 150.156 44.644 149.564 44.612 148.868C44.604 148.54 44.6 148.188 44.6 147.812C44.6 147.436 44.604 147.076 44.612 146.732C44.644 146.044 44.804 145.46 45.092 144.98C45.388 144.492 45.8 144.12 46.328 143.864C46.856 143.608 47.488 143.48 48.224 143.48C48.76 143.48 49.248 143.548 49.688 143.684C50.128 143.82 50.508 144.016 50.828 144.272C51.148 144.528 51.396 144.828 51.572 145.172C51.748 145.516 51.844 145.9 51.86 146.324C51.86 146.396 51.832 146.456 51.776 146.504C51.728 146.552 51.668 146.576 51.596 146.576H50.228C50.132 146.576 50.056 146.552 50 146.504C49.944 146.456 49.9 146.376 49.868 146.264C49.748 145.792 49.548 145.468 49.268 145.292C48.988 145.116 48.64 145.028 48.224 145.028C47.728 145.028 47.336 145.164 47.048 145.436C46.76 145.708 46.604 146.16 46.58 146.792C46.556 147.448 46.556 148.12 46.58 148.808C46.604 149.44 46.76 149.892 47.048 150.164C47.336 150.436 47.728 150.572 48.224 150.572C48.64 150.572 48.988 150.484 49.268 150.308C49.556 150.124 49.756 149.8 49.868 149.336C49.9 149.216 49.944 149.136 50 149.096C50.056 149.048 50.132 149.024 50.228 149.024H51.596C51.668 149.024 51.728 149.048 51.776 149.096C51.832 149.144 51.86 149.204 51.86 149.276C51.844 149.7 51.748 150.084 51.572 150.428C51.396 150.772 51.148 151.072 50.828 151.328C50.508 151.584 50.128 151.78 49.688 151.916C49.248 152.052 48.76 152.12 48.224 152.12ZM55.9323 152.12C55.2683 152.12 54.7123 152.012 54.2643 151.796C53.8163 151.572 53.4723 151.256 53.2323 150.848C53.0003 150.44 52.8723 149.964 52.8483 149.42C52.8403 149.26 52.8363 149.08 52.8363 148.88C52.8363 148.672 52.8403 148.492 52.8483 148.34C52.8723 147.788 53.0083 147.312 53.2563 146.912C53.5043 146.504 53.8523 146.192 54.3003 145.976C54.7483 145.752 55.2923 145.64 55.9323 145.64C56.5643 145.64 57.1043 145.752 57.5523 145.976C58.0003 146.192 58.3483 146.504 58.5963 146.912C58.8443 147.312 58.9803 147.788 59.0043 148.34C59.0203 148.492 59.0283 148.672 59.0283 148.88C59.0283 149.08 59.0203 149.26 59.0043 149.42C58.9803 149.964 58.8483 150.44 58.6083 150.848C58.3763 151.256 58.0363 151.572 57.5883 151.796C57.1403 152.012 56.5883 152.12 55.9323 152.12ZM55.9323 150.8C56.3243 150.8 56.6203 150.68 56.8203 150.44C57.0203 150.192 57.1283 149.832 57.1443 149.36C57.1523 149.24 57.1563 149.08 57.1563 148.88C57.1563 148.68 57.1523 148.52 57.1443 148.4C57.1283 147.936 57.0203 147.58 56.8203 147.332C56.6203 147.084 56.3243 146.96 55.9323 146.96C55.5403 146.96 55.2403 147.084 55.0323 147.332C54.8323 147.58 54.7243 147.936 54.7083 148.4C54.7003 148.52 54.6963 148.68 54.6963 148.88C54.6963 149.08 54.7003 149.24 54.7083 149.36C54.7243 149.832 54.8323 150.192 55.0323 150.44C55.2403 150.68 55.5403 150.8 55.9323 150.8ZM60.5833 152C60.4953 152 60.4233 151.972 60.3673 151.916C60.3113 151.86 60.2833 151.788 60.2833 151.7V143.78C60.2833 143.692 60.3113 143.62 60.3673 143.564C60.4233 143.508 60.4953 143.48 60.5833 143.48H61.7833C61.8633 143.48 61.9313 143.508 61.9873 143.564C62.0433 143.62 62.0713 143.692 62.0713 143.78V151.7C62.0713 151.788 62.0433 151.86 61.9873 151.916C61.9313 151.972 61.8633 152 61.7833 152H60.5833ZM66.444 152.12C65.78 152.12 65.224 152.012 64.776 151.796C64.328 151.572 63.984 151.256 63.744 150.848C63.512 150.44 63.384 149.964 63.36 149.42C63.352 149.26 63.348 149.08 63.348 148.88C63.348 148.672 63.352 148.492 63.36 148.34C63.384 147.788 63.52 147.312 63.768 146.912C64.016 146.504 64.364 146.192 64.812 145.976C65.26 145.752 65.804 145.64 66.444 145.64C67.076 145.64 67.616 145.752 68.064 145.976C68.512 146.192 68.86 146.504 69.108 146.912C69.356 147.312 69.492 147.788 69.516 148.34C69.532 148.492 69.54 148.672 69.54 148.88C69.54 149.08 69.532 149.26 69.516 149.42C69.492 149.964 69.36 150.44 69.12 150.848C68.888 151.256 68.548 151.572 68.1 151.796C67.652 152.012 67.1 152.12 66.444 152.12ZM66.444 150.8C66.836 150.8 67.132 150.68 67.332 150.44C67.532 150.192 67.64 149.832 67.656 149.36C67.664 149.24 67.668 149.08 67.668 148.88C67.668 148.68 67.664 148.52 67.656 148.4C67.64 147.936 67.532 147.58 67.332 147.332C67.132 147.084 66.836 146.96 66.444 146.96C66.052 146.96 65.752 147.084 65.544 147.332C65.344 147.58 65.236 147.936 65.22 148.4C65.212 148.52 65.208 148.68 65.208 148.88C65.208 149.08 65.212 149.24 65.22 149.36C65.236 149.832 65.344 150.192 65.544 150.44C65.752 150.68 66.052 150.8 66.444 150.8ZM71.0831 152C71.0031 152 70.9351 151.972 70.8791 151.916C70.8231 151.86 70.7951 151.788 70.7951 151.7V146.06C70.7951 145.98 70.8231 145.912 70.8791 145.856C70.9351 145.792 71.0031 145.76 71.0831 145.76H72.2591C72.3391 145.76 72.4071 145.792 72.4631 145.856C72.5271 145.912 72.5591 145.98 72.5591 146.06V146.54C72.7591 146.292 73.0031 146.1 73.2911 145.964C73.5871 145.828 73.9271 145.76 74.3111 145.76H74.8271C74.9071 145.76 74.9751 145.788 75.0311 145.844C75.0871 145.9 75.1151 145.972 75.1151 146.06V147.092C75.1151 147.18 75.0871 147.252 75.0311 147.308C74.9751 147.364 74.9071 147.392 74.8271 147.392H73.7711C73.4191 147.392 73.1431 147.492 72.9431 147.692C72.7431 147.884 72.6431 148.16 72.6431 148.52V151.7C72.6431 151.788 72.6151 151.86 72.5591 151.916C72.5031 151.972 72.4311 152 72.3431 152H71.0831Z" fill="#F8F8F8" fill-opacity="0.5"/>
<path opacity="0.8" d="M54 194C60.6274 194 66 188.627 66 182C66 175.373 60.6274 170 54 170C47.3726 170 42 175.373 42 182C42 188.627 47.3726 194 54 194Z" fill="#F8F8F8" fill-opacity="0.95"/>
<circle cx="54" cy="182" r="6" fill="#282828" fill-opacity="0.8"/>
<path d="M98 196C105.732 196 112 189.732 112 182C112 174.268 105.732 168 98 168C90.268 168 84 174.268 84 182C84 189.732 90.268 196 98 196Z" fill="#FF7474"/>
<path d="M142 194C148.627 194 154 188.627 154 182C154 175.373 148.627 170 142 170C135.373 170 130 175.373 130 182C130 188.627 135.373 194 142 194Z" fill="#FFA502"/>
<path d="M186 194C192.627 194 198 188.627 198 182C198 175.373 192.627 170 186 170C179.373 170 174 175.373 174 182C174 188.627 179.373 194 186 194Z" fill="#FFFA65"/>
<circle cx="186" cy="182" r="6" fill="#282828" fill-opacity="0.8"/>
<path d="M230 194C236.627 194 242 188.627 242 182C242 175.373 236.627 170 230 170C223.373 170 218 175.373 218 182C218 188.627 223.373 194 230 194Z" fill="#2ECC71"/>
<path d="M274 194C280.627 194 286 188.627 286 182C286 175.373 280.627 170 274 170C267.373 170 262 175.373 262 182C262 188.627 267.373 194 274 194Z" fill="#DEB4F6"/>
<path d="M318 194C324.627 194 330 188.627 330 182C330 175.373 324.627 170 318 170C311.373 170 306 175.373 306 182C306 188.627 311.373 194 318 194Z" fill="#B4AAFF"/>
<path d="M362 194C368.627 194 374 188.627 374 182C374 175.373 368.627 170 362 170C355.373 170 350 175.373 350 182C350 188.627 355.373 194 362 194Z" fill="#5490FF"/>
<path d="M406 194C412.627 194 418 188.627 418 182C418 175.373 412.627 170 406 170C399.373 170 394 175.373 394 182C394 188.627 399.373 194 406 194Z" fill="#B3EFB8"/>
</g>
<defs>
<filter id="filter0_bdi_131_10406" x="-80" y="-100" width="641" height="416" filterUnits="userSpaceOnUse" color-interpolation-filters="sRGB">
<feFlood flood-opacity="0" result="BackgroundImageFix"/>
<feGaussianBlur in="BackgroundImageFix" stdDeviation="50"/>
<feComposite in2="SourceAlpha" operator="in" result="effect1_backgroundBlur_131_10406"/>
<feColorMatrix in="SourceAlpha" type="matrix" values="0 0 0 0 0 0 0 0 0 0 0 0 0 0 0 0 0 0 127 0" result="hardAlpha"/>
<feMorphology radius="12" operator="erode" in="SourceAlpha" result="effect2_dropShadow_131_10406"/>
<feOffset dy="24"/>
<feGaussianBlur stdDeviation="16"/>
<feComposite in2="hardAlpha" operator="out"/>
<feColorMatrix type="matrix" values="0 0 0 0 0.0705882 0 0 0 0 0.0705882 0 0 0 0 0.0705882 0 0 0 0.1 0"/>
<feBlend mode="multiply" in2="effect1_backgroundBlur_131_10406" result="effect2_dropShadow_131_10406"/>
<feBlend mode="normal" in="SourceGraphic" in2="effect2_dropShadow_131_10406" result="shape"/>
<feColorMatrix in="SourceAlpha" type="matrix" values="0 0 0 0 0 0 0 0 0 0 0 0 0 0 0 0 0 0 127 0" result="hardAlpha"/>
<feOffset dx="2" dy="4"/>
<feGaussianBlur stdDeviation="8"/>
<feComposite in2="hardAlpha" operator="arithmetic" k2="-1" k3="1"/>
<feColorMatrix type="matrix" values="0 0 0 0 0.972549 0 0 0 0 0.972549 0 0 0 0 0.972549 0 0 0 0.06 0"/>
<feBlend mode="normal" in2="shape" result="effect3_innerShadow_131_10406"/>
</filter>
<filter id="filter1_bi_131_10406" x="-68" y="-64" width="244" height="244" filterUnits="userSpaceOnUse" color-interpolation-filters="sRGB">
<feFlood flood-opacity="0" result="BackgroundImageFix"/>
<feGaussianBlur in="BackgroundImageFix" stdDeviation="50"/>
<feComposite in2="SourceAlpha" operator="in" result="effect1_backgroundBlur_131_10406"/>
<feBlend mode="normal" in="SourceGraphic" in2="effect1_backgroundBlur_131_10406" result="shape"/>
<feColorMatrix in="SourceAlpha" type="matrix" values="0 0 0 0 0 0 0 0 0 0 0 0 0 0 0 0 0 0 127 0" result="hardAlpha"/>
<feOffset dx="2" dy="4"/>
<feGaussianBlur stdDeviation="8"/>
<feComposite in2="hardAlpha" operator="arithmetic" k2="-1" k3="1"/>
<feColorMatrix type="matrix" values="0 0 0 0 0.972549 0 0 0 0 0.972549 0 0 0 0 0.972549 0 0 0 0.06 0"/>
<feBlend mode="normal" in2="shape" result="effect2_innerShadow_131_10406"/>
</filter>
<filter id="filter2_bi_131_10406" x="-24" y="-64" width="244" height="244" filterUnits="userSpaceOnUse" color-interpolation-filters="sRGB">
<feFlood flood-opacity="0" result="BackgroundImageFix"/>
<feGaussianBlur in="BackgroundImageFix" stdDeviation="50"/>
<feComposite in2="SourceAlpha" operator="in" result="effect1_backgroundBlur_131_10406"/>
<feBlend mode="normal" in="SourceGraphic" in2="effect1_backgroundBlur_131_10406" result="shape"/>
<feColorMatrix in="SourceAlpha" type="matrix" values="0 0 0 0 0 0 0 0 0 0 0 0 0 0 0 0 0 0 127 0" result="hardAlpha"/>
<feOffset dx="2" dy="4"/>
<feGaussianBlur stdDeviation="8"/>
<feComposite in2="hardAlpha" operator="arithmetic" k2="-1" k3="1"/>
<feColorMatrix type="matrix" values="0 0 0 0 0.972549 0 0 0 0 0.972549 0 0 0 0 0.972549 0 0 0 0.06 0"/>
<feBlend mode="normal" in2="shape" result="effect2_innerShadow_131_10406"/>
</filter>
</defs>
</svg>
