<svg width="186" height="60" viewBox="0 0 186 60" fill="none" xmlns="http://www.w3.org/2000/svg">
<g filter="url(#filter0_bdi_4_7355)">
<rect x="2" y="2" width="56" height="56" rx="28" fill="#F8F8F8" fill-opacity="0.03" shape-rendering="crispEdges"/>
<rect x="2.75" y="2.75" width="54.5" height="54.5" rx="27.25" stroke="url(#paint0_linear_4_7355)" stroke-opacity="0.15" stroke-width="1.5" shape-rendering="crispEdges"/>
<g filter="url(#filter1_dd_4_7355)">
<path fill-rule="evenodd" clip-rule="evenodd" d="M41.173 21.1507C42.2757 22.2534 42.2757 24.0411 41.173 25.1438L28.4671 37.8497C27.3645 38.9523 25.5767 38.9523 24.4741 37.8497L18.827 32.2026C17.7243 31.1 17.7243 29.3122 18.827 28.2095C19.9296 27.1069 21.7174 27.1069 22.8201 28.2095L26.4706 31.8601L37.1799 21.1507C38.2826 20.0481 40.0704 20.0481 41.173 21.1507Z" fill="url(#paint1_linear_4_7355)" shape-rendering="crispEdges"/>
</g>
</g>
<path opacity="0.8" d="M182.644 37.3498C179.564 37.3498 177.52 35.5018 177.52 31.9458V26.9898H175.112V23.9658H177.52V19.4858H181.384V23.9658H185.248V26.9898H181.384V31.4138C181.384 33.0658 181.944 33.9338 183.708 33.9338L184.856 33.9058V37.0138C184.072 37.2378 183.428 37.3498 182.644 37.3498Z" fill="#F8F8F8" fill-opacity="0.95"/>
<path opacity="0.8" d="M169.812 37.4341C166.676 37.4341 164.492 35.6421 164.268 33.2061H167.908C168.104 34.1021 168.916 34.4661 169.812 34.4661C170.652 34.4661 171.24 34.1021 171.24 33.4861C171.24 31.5821 164.604 32.8421 164.604 27.6621C164.604 25.3661 166.536 23.6861 169.476 23.6581C172.444 23.6301 174.432 25.1981 174.628 27.7461H171.044C170.904 27.1021 170.344 26.6261 169.476 26.6261C168.636 26.6261 168.132 27.1021 168.132 27.6621C168.132 29.4541 174.88 28.4461 174.88 33.4861C174.88 35.9221 172.472 37.4341 169.812 37.4341Z" fill="#F8F8F8" fill-opacity="0.95"/>
<path opacity="0.8" d="M158.802 37.1261V23.9661H162.666V37.1261H158.802ZM160.734 21.9781C159.418 21.9781 158.326 20.9701 158.326 19.6821C158.326 18.3661 159.418 17.3301 160.734 17.3301C162.05 17.3301 163.142 18.3661 163.142 19.6821C163.142 20.9701 162.05 21.9781 160.734 21.9781Z" fill="#F8F8F8" fill-opacity="0.95"/>
<path opacity="0.8" d="M152.327 37.1263V18.0303H156.191V37.1263H152.327Z" fill="#F8F8F8" fill-opacity="0.95"/>
<path opacity="0.8" d="M143.81 37.4342C139.638 37.4342 136.922 34.4942 136.922 30.5462C136.922 26.6262 139.722 23.6582 143.698 23.6582C147.674 23.6582 150.418 26.6262 150.418 30.5462L150.39 31.8062H140.506C140.926 33.4862 142.102 34.3262 143.726 34.3262C145.21 34.3262 145.994 33.9622 146.526 33.1502H150.026C149.186 36.2022 146.414 37.4342 143.81 37.4342ZM140.478 29.2302H146.89C146.638 27.8022 145.294 26.7942 143.698 26.7942C142.018 26.7942 140.842 27.7742 140.478 29.2302Z" fill="#F8F8F8" fill-opacity="0.7"/>
<path opacity="0.8" d="M131.148 37.1263V18.0303H135.012V37.1263H131.148Z" fill="#F8F8F8" fill-opacity="0.7"/>
<path opacity="0.8" d="M123.286 37.4342C121.354 37.4342 119.954 36.5662 119.17 35.1102V42.6702H115.306V23.9662H118.722L119.086 26.1502C119.87 24.6102 121.298 23.6582 123.286 23.6582C126.226 23.6582 129.25 25.9542 129.25 30.5462C129.25 35.1382 126.226 37.4342 123.286 37.4342ZM122.194 34.0742C124.07 34.0742 125.442 32.7302 125.442 30.5462C125.442 28.4462 124.098 27.0182 122.194 27.0182C120.794 27.0182 119.142 28.1662 119.142 30.5462C119.142 33.0942 120.738 34.0742 122.194 34.0742Z" fill="#F8F8F8" fill-opacity="0.7"/>
<path opacity="0.8" d="M92.0181 29.7622C92.0181 25.9822 94.0061 23.6582 97.8981 23.6582C100.502 23.6582 101.846 25.1702 102.378 26.0662H102.434C102.966 25.1702 104.31 23.6582 106.914 23.6582C110.806 23.6582 112.794 25.9822 112.794 29.7622V37.1262H108.93V30.0422C108.93 28.1942 108.202 27.0182 106.634 27.0182C105.066 27.0182 104.338 28.1942 104.338 30.0422V37.1262H100.474V30.0422C100.474 28.1942 99.7461 27.0182 98.1781 27.0182C96.6101 27.0182 95.8821 28.1942 95.8821 30.0422V37.1262H92.0181V29.7622Z" fill="#F8F8F8" fill-opacity="0.7"/>
<path opacity="0.8" d="M86.1034 37.1261V23.9661H89.9674V37.1261H86.1034ZM88.0354 21.9781C86.7194 21.9781 85.6274 20.9701 85.6274 19.6821C85.6274 18.3661 86.7194 17.3301 88.0354 17.3301C89.3514 17.3301 90.4434 18.3661 90.4434 19.6821C90.4434 20.9701 89.3514 21.9781 88.0354 21.9781Z" fill="#F8F8F8" fill-opacity="0.7"/>
<path opacity="0.8" d="M79.544 37.4341C76.408 37.4341 74.224 35.6421 74 33.2061H77.64C77.836 34.1021 78.648 34.4661 79.544 34.4661C80.384 34.4661 80.972 34.1021 80.972 33.4861C80.972 31.5821 74.336 32.8421 74.336 27.6621C74.336 25.3661 76.268 23.6861 79.208 23.6581C82.176 23.6301 84.164 25.1981 84.36 27.7461H80.776C80.636 27.1021 80.076 26.6261 79.208 26.6261C78.368 26.6261 77.864 27.1021 77.864 27.6621C77.864 29.4541 84.612 28.4461 84.612 33.4861C84.612 35.9221 82.204 37.4341 79.544 37.4341Z" fill="#F8F8F8" fill-opacity="0.7"/>
<defs>
<filter id="filter0_bdi_4_7355" x="-98" y="-98" width="256" height="256" filterUnits="userSpaceOnUse" color-interpolation-filters="sRGB">
<feFlood flood-opacity="0" result="BackgroundImageFix"/>
<feGaussianBlur in="BackgroundImageFix" stdDeviation="50"/>
<feComposite in2="SourceAlpha" operator="in" result="effect1_backgroundBlur_4_7355"/>
<feColorMatrix in="SourceAlpha" type="matrix" values="0 0 0 0 0 0 0 0 0 0 0 0 0 0 0 0 0 0 127 0" result="hardAlpha"/>
<feMorphology radius="2" operator="dilate" in="SourceAlpha" result="effect2_dropShadow_4_7355"/>
<feOffset/>
<feComposite in2="hardAlpha" operator="out"/>
<feColorMatrix type="matrix" values="0 0 0 0 0.0705882 0 0 0 0 0.0705882 0 0 0 0 0.0705882 0 0 0 0.6 0"/>
<feBlend mode="normal" in2="effect1_backgroundBlur_4_7355" result="effect2_dropShadow_4_7355"/>
<feBlend mode="normal" in="SourceGraphic" in2="effect2_dropShadow_4_7355" result="shape"/>
<feColorMatrix in="SourceAlpha" type="matrix" values="0 0 0 0 0 0 0 0 0 0 0 0 0 0 0 0 0 0 127 0" result="hardAlpha"/>
<feOffset dx="2" dy="4"/>
<feGaussianBlur stdDeviation="8"/>
<feComposite in2="hardAlpha" operator="arithmetic" k2="-1" k3="1"/>
<feColorMatrix type="matrix" values="0 0 0 0 0.972549 0 0 0 0 0.972549 0 0 0 0 0.972549 0 0 0 0.06 0"/>
<feBlend mode="normal" in2="shape" result="effect3_innerShadow_4_7355"/>
</filter>
<filter id="filter1_dd_4_7355" x="5.29412" y="18.912" width="40.9412" height="35.2942" filterUnits="userSpaceOnUse" color-interpolation-filters="sRGB">
<feFlood flood-opacity="0" result="BackgroundImageFix"/>
<feColorMatrix in="SourceAlpha" type="matrix" values="0 0 0 0 0 0 0 0 0 0 0 0 0 0 0 0 0 0 127 0" result="hardAlpha"/>
<feOffset dx="-4.23529" dy="7.05882"/>
<feGaussianBlur stdDeviation="4.23529"/>
<feColorMatrix type="matrix" values="0 0 0 0 0 0 0 0 0 0 0 0 0 0 0 0 0 0 0.2 0"/>
<feBlend mode="normal" in2="BackgroundImageFix" result="effect1_dropShadow_4_7355"/>
<feColorMatrix in="SourceAlpha" type="matrix" values="0 0 0 0 0 0 0 0 0 0 0 0 0 0 0 0 0 0 127 0" result="hardAlpha"/>
<feOffset dx="-1.41176" dy="2.82353"/>
<feGaussianBlur stdDeviation="2.11765"/>
<feComposite in2="hardAlpha" operator="out"/>
<feColorMatrix type="matrix" values="0 0 0 0 0 0 0 0 0 0 0 0 0 0 0 0 0 0 0.1 0"/>
<feBlend mode="normal" in2="effect1_dropShadow_4_7355" result="effect2_dropShadow_4_7355"/>
<feBlend mode="normal" in="SourceGraphic" in2="effect2_dropShadow_4_7355" result="shape"/>
</filter>
<linearGradient id="paint0_linear_4_7355" x1="30" y1="2" x2="54.3611" y2="63.4948" gradientUnits="userSpaceOnUse">
<stop stop-color="white" stop-opacity="0.4"/>
<stop offset="0.4" stop-color="white" stop-opacity="0.01"/>
<stop offset="0.6" stop-color="white" stop-opacity="0.01"/>
<stop offset="1" stop-color="white" stop-opacity="0.1"/>
</linearGradient>
<linearGradient id="paint1_linear_4_7355" x1="30" y1="20.3237" x2="30" y2="38.6767" gradientUnits="userSpaceOnUse">
<stop stop-color="#F8F8F8" stop-opacity="0.9"/>
<stop offset="1" stop-color="#F8F8F8" stop-opacity="0.3"/>
</linearGradient>
</defs>
</svg>
