<svg width="1132" height="640" viewBox="0 0 1132 640" fill="none" xmlns="http://www.w3.org/2000/svg">
<circle cx="792.5" cy="9.5" r="0.5" fill="white" fill-opacity="0.4"/>
<circle cx="130.512" cy="367.512" r="0.511892" fill="white" fill-opacity="0.5"/>
<circle cx="172.594" cy="487.594" r="0.594269" fill="white" fill-opacity="0.5"/>
<circle cx="646.613" cy="276.613" r="0.612987" fill="white" fill-opacity="0.5"/>
<circle cx="1020.5" cy="365.5" r="0.5" fill="white" fill-opacity="0.3"/>
<circle cx="429.5" cy="578.5" r="0.5" fill="white" fill-opacity="0.4"/>
<circle cx="981.5" cy="201.5" r="0.5" fill="white" fill-opacity="0.3"/>
<circle cx="498.502" cy="505.502" r="0.502405" fill="white" fill-opacity="0.4"/>
<circle cx="298.749" cy="557.749" r="0.748903" fill="white" fill-opacity="0.4"/>
<circle cx="1117.5" cy="355.5" r="0.5" fill="white" fill-opacity="0.6"/>
<circle cx="485.5" cy="196.5" r="0.5" fill="white" fill-opacity="0.6"/>
<circle cx="409.655" cy="16.6549" r="0.654911" fill="white" fill-opacity="0.3"/>
<circle cx="713.698" cy="262.698" r="0.698193" fill="white" fill-opacity="0.5"/>
<circle cx="220.5" cy="8.5" r="0.5" fill="white" fill-opacity="0.4"/>
<circle cx="235.5" cy="258.5" r="0.5" fill="white" fill-opacity="0.5"/>
<circle cx="339.5" cy="258.5" r="0.5" fill="white" fill-opacity="0.3"/>
<circle cx="342.622" cy="27.6223" r="0.622316" fill="white" fill-opacity="0.4"/>
<circle cx="248.5" cy="446.5" r="0.5" fill="white" fill-opacity="0.4"/>
<circle cx="413.69" cy="589.69" r="0.68966" fill="white" fill-opacity="0.5"/>
<circle cx="973.5" cy="239.5" r="0.5" fill="white" fill-opacity="0.5"/>
<circle cx="770.5" cy="286.5" r="0.5" fill="white" fill-opacity="0.4"/>
<circle cx="163.5" cy="282.5" r="0.5" fill="white" fill-opacity="0.4"/>
<circle cx="501.574" cy="65.5736" r="0.573634" fill="white" fill-opacity="0.5"/>
<circle cx="428.578" cy="104.578" r="0.577696" fill="white" fill-opacity="0.6"/>
<circle cx="859.628" cy="521.628" r="0.628323" fill="white" fill-opacity="0.4"/>
<circle cx="802.678" cy="542.678" r="0.678263" fill="white" fill-opacity="0.6"/>
<circle cx="749.5" cy="389.5" r="0.5" fill="white" fill-opacity="0.5"/>
<circle cx="734.648" cy="319.648" r="0.648008" fill="white" fill-opacity="0.5"/>
<circle cx="991.5" cy="570.5" r="0.5" fill="white" fill-opacity="0.5"/>
<circle cx="792.562" cy="96.5615" r="0.56153" fill="white" fill-opacity="0.5"/>
<circle cx="25.5" cy="187.5" r="0.5" fill="white" fill-opacity="0.5"/>
<circle cx="339.528" cy="85.5276" r="0.527582" fill="white" fill-opacity="0.4"/>
<circle cx="995.5" cy="53.5" r="0.5" fill="white" fill-opacity="0.5"/>
<circle cx="338.5" cy="57.5" r="0.5" fill="white" fill-opacity="0.4"/>
<circle cx="16.5" cy="635.5" r="0.5" fill="white" fill-opacity="0.6"/>
<circle cx="111.558" cy="577.557" r="0.557522" fill="white" fill-opacity="0.3"/>
<circle cx="394.5" cy="536.5" r="0.5" fill="white" fill-opacity="0.5"/>
<circle cx="848.511" cy="526.511" r="0.510802" fill="white" fill-opacity="0.5"/>
<circle cx="970.5" cy="423.5" r="0.5" fill="white" fill-opacity="0.5"/>
<circle cx="900.509" cy="94.5089" r="0.508851" fill="white" fill-opacity="0.4"/>
<circle cx="400.676" cy="27.676" r="0.676017" fill="white" fill-opacity="0.6"/>
<circle cx="163.5" cy="476.5" r="0.5" fill="white" fill-opacity="0.4"/>
<circle cx="297.5" cy="370.5" r="0.5" fill="white" fill-opacity="0.6"/>
<circle cx="121.5" cy="430.5" r="0.5" fill="white" fill-opacity="0.4"/>
<circle cx="799.5" cy="407.5" r="0.5" fill="white" fill-opacity="0.5"/>
<circle cx="579.5" cy="476.5" r="0.5" fill="white" fill-opacity="0.6"/>
<circle cx="119.541" cy="343.541" r="0.54104" fill="white" fill-opacity="0.6"/>
<circle cx="187.516" cy="38.5156" r="0.51562" fill="white" fill-opacity="0.3"/>
<circle cx="799.5" cy="524.5" r="0.5" fill="white" fill-opacity="0.5"/>
<circle cx="306.737" cy="160.737" r="0.736917" fill="white" fill-opacity="0.6"/>
<circle cx="715.5" cy="26.5" r="0.5" fill="white" fill-opacity="0.4"/>
<circle cx="895.5" cy="477.5" r="0.5" fill="white" fill-opacity="0.3"/>
<circle cx="416.607" cy="440.607" r="0.60713" fill="white" fill-opacity="0.4"/>
<circle cx="111.633" cy="592.633" r="0.633342" fill="white" fill-opacity="0.5"/>
<circle cx="888.64" cy="590.64" r="0.640076" fill="white" fill-opacity="0.3"/>
<circle cx="475.622" cy="61.6222" r="0.622232" fill="white" fill-opacity="0.5"/>
<circle cx="83.5301" cy="61.5301" r="0.530135" fill="white" fill-opacity="0.5"/>
<circle cx="745.631" cy="594.631" r="0.630537" fill="white" fill-opacity="0.5"/>
<circle cx="940.5" cy="383.5" r="0.5" fill="white" fill-opacity="0.6"/>
<circle cx="161.682" cy="551.682" r="0.682499" fill="white" fill-opacity="0.6"/>
<circle cx="575.5" cy="216.5" r="0.5" fill="white" fill-opacity="0.6"/>
<circle cx="267.583" cy="487.583" r="0.583016" fill="white" fill-opacity="0.5"/>
<circle cx="1041.5" cy="211.5" r="0.5" fill="white" fill-opacity="0.3"/>
<circle cx="89.5104" cy="351.51" r="0.510443" fill="white" fill-opacity="0.6"/>
<circle cx="96.5807" cy="427.581" r="0.580658" fill="white" fill-opacity="0.4"/>
<circle cx="51.6511" cy="513.651" r="0.65108" fill="white" fill-opacity="0.5"/>
<circle cx="319.665" cy="466.665" r="0.665193" fill="white" fill-opacity="0.5"/>
<circle cx="124.56" cy="316.56" r="0.560482" fill="white" fill-opacity="0.4"/>
<circle cx="502.561" cy="543.561" r="0.560922" fill="white" fill-opacity="0.6"/>
<circle cx="83.5058" cy="28.5058" r="0.505818" fill="white" fill-opacity="0.4"/>
<circle cx="863.5" cy="430.5" r="0.5" fill="white" fill-opacity="0.4"/>
<circle cx="233.7" cy="48.6997" r="0.699715" fill="white" fill-opacity="0.5"/>
<circle cx="601.53" cy="402.53" r="0.529863" fill="white" fill-opacity="0.5"/>
<circle cx="336.5" cy="428.5" r="0.5" fill="white" fill-opacity="0.4"/>
<circle cx="955.717" cy="255.717" r="0.717357" fill="white" fill-opacity="0.3"/>
<circle cx="952.731" cy="394.731" r="0.731388" fill="white" fill-opacity="0.4"/>
<circle cx="927.706" cy="228.706" r="0.70595" fill="white" fill-opacity="0.6"/>
<circle cx="814.664" cy="596.664" r="0.66439" fill="white" fill-opacity="0.4"/>
<circle cx="878.5" cy="34.5" r="0.5" fill="white" fill-opacity="0.5"/>
<circle cx="243.5" cy="533.5" r="0.5" fill="white" fill-opacity="0.3"/>
<circle cx="1052.58" cy="445.58" r="0.580235" fill="white" fill-opacity="0.5"/>
<circle cx="10.6038" cy="517.604" r="0.603756" fill="white" fill-opacity="0.5"/>
<circle cx="350.5" cy="231.5" r="0.5" fill="white" fill-opacity="0.3"/>
<circle cx="939.5" cy="465.5" r="0.5" fill="white" fill-opacity="0.5"/>
<circle cx="968.5" cy="268.5" r="0.5" fill="white" fill-opacity="0.5"/>
<circle cx="810.58" cy="467.58" r="0.580391" fill="white" fill-opacity="0.4"/>
<circle cx="243.73" cy="367.73" r="0.730357" fill="white" fill-opacity="0.5"/>
<circle cx="297.63" cy="545.63" r="0.630264" fill="white" fill-opacity="0.4"/>
<circle cx="518.505" cy="626.505" r="0.50523" fill="white" fill-opacity="0.4"/>
<circle cx="481.652" cy="230.652" r="0.651682" fill="white" fill-opacity="0.6"/>
<circle cx="139.5" cy="470.5" r="0.5" fill="white" fill-opacity="0.5"/>
<circle cx="40.6251" cy="428.625" r="0.625077" fill="white" fill-opacity="0.3"/>
<circle cx="780.512" cy="331.512" r="0.51211" fill="white" fill-opacity="0.4"/>
<circle cx="334.5" cy="490.5" r="0.5" fill="white" fill-opacity="0.5"/>
<circle cx="733.5" cy="513.5" r="0.5" fill="white" fill-opacity="0.4"/>
<circle cx="1076.52" cy="503.524" r="0.52428" fill="white" fill-opacity="0.4"/>
<circle cx="261.5" cy="253.5" r="0.5" fill="white" fill-opacity="0.3"/>
<circle cx="644.504" cy="559.504" r="0.503817" fill="white" fill-opacity="0.5"/>
<circle cx="289.75" cy="156.75" r="0.749723" fill="white" fill-opacity="0.6"/>
<circle cx="511.677" cy="327.677" r="0.676812" fill="white" fill-opacity="0.5"/>
<circle cx="1073.5" cy="87.5" r="0.5" fill="white" fill-opacity="0.4"/>
<circle cx="838.5" cy="255.5" r="0.5" fill="white" fill-opacity="0.6"/>
<circle cx="1.52229" cy="588.522" r="0.522291" fill="white" fill-opacity="0.4"/>
<circle cx="930.5" cy="540.5" r="0.5" fill="white" fill-opacity="0.5"/>
<circle cx="845.7" cy="213.7" r="0.699671" fill="white" fill-opacity="0.6"/>
<circle cx="1065.6" cy="577.596" r="0.596461" fill="white" fill-opacity="0.4"/>
<circle cx="224.613" cy="117.613" r="0.613193" fill="white" fill-opacity="0.3"/>
<circle cx="638.5" cy="580.5" r="0.5" fill="white" fill-opacity="0.4"/>
<circle cx="766.5" cy="89.5" r="0.5" fill="white" fill-opacity="0.6"/>
<circle cx="275.615" cy="7.61509" r="0.615095" fill="white" fill-opacity="0.5"/>
<circle cx="796.507" cy="180.507" r="0.507089" fill="white" fill-opacity="0.4"/>
<circle cx="938.576" cy="348.576" r="0.576308" fill="white" fill-opacity="0.5"/>
<circle cx="556.541" cy="98.5412" r="0.541157" fill="white" fill-opacity="0.6"/>
<circle cx="961.731" cy="427.731" r="0.731054" fill="white" fill-opacity="0.4"/>
<circle cx="189.575" cy="65.5754" r="0.575393" fill="white" fill-opacity="0.4"/>
<circle cx="484.608" cy="306.608" r="0.608071" fill="white" fill-opacity="0.5"/>
<circle cx="698.704" cy="327.704" r="0.704303" fill="white" fill-opacity="0.4"/>
<circle cx="116.576" cy="572.576" r="0.575576" fill="white" fill-opacity="0.6"/>
<g filter="url(#filter0_d_18_7382)">
<circle cx="1116.5" cy="356.5" r="0.5" fill="white" fill-opacity="0.6" shape-rendering="crispEdges"/>
</g>
<g filter="url(#filter1_d_18_7382)">
<circle cx="38.6467" cy="328.647" r="0.646656" fill="white" fill-opacity="0.6" shape-rendering="crispEdges"/>
</g>
<circle cx="219.537" cy="142.537" r="0.536546" fill="white" fill-opacity="0.4"/>
<circle cx="586.674" cy="224.674" r="0.674273" fill="white" fill-opacity="0.6"/>
<circle cx="60.5" cy="590.5" r="0.5" fill="white" fill-opacity="0.3"/>
<circle cx="544.681" cy="354.681" r="0.681141" fill="white" fill-opacity="0.3"/>
<circle cx="882.5" cy="441.5" r="0.5" fill="white" fill-opacity="0.4"/>
<circle cx="174.5" cy="412.5" r="0.5" fill="white" fill-opacity="0.6"/>
<circle cx="387.5" cy="475.5" r="0.5" fill="white" fill-opacity="0.4"/>
<circle cx="480.5" cy="208.5" r="0.5" fill="white" fill-opacity="0.5"/>
<circle cx="1116.7" cy="390.704" r="0.703602" fill="white" fill-opacity="0.5"/>
<circle cx="543.5" cy="260.5" r="0.5" fill="white" fill-opacity="0.3"/>
<circle cx="102.567" cy="362.567" r="0.567091" fill="white" fill-opacity="0.5"/>
<circle cx="540.688" cy="105.688" r="0.687658" fill="white" fill-opacity="0.4"/>
<circle cx="677.5" cy="573.5" r="0.5" fill="white" fill-opacity="0.4"/>
<circle cx="90.5" cy="251.5" r="0.5" fill="white" fill-opacity="0.3"/>
<circle cx="983.716" cy="418.716" r="0.71577" fill="white" fill-opacity="0.6"/>
<circle cx="579.5" cy="248.5" r="0.5" fill="white" fill-opacity="0.5"/>
<circle cx="848.5" cy="499.5" r="0.5" fill="white" fill-opacity="0.5"/>
<circle cx="857.529" cy="98.5285" r="0.528502" fill="white" fill-opacity="0.5"/>
<circle cx="41.5" cy="94.5" r="0.5" fill="white" fill-opacity="0.4"/>
<circle cx="543.5" cy="467.5" r="0.5" fill="white" fill-opacity="0.5"/>
<circle cx="750.5" cy="412.5" r="0.5" fill="white" fill-opacity="0.4"/>
<circle cx="91.6424" cy="484.642" r="0.642424" fill="white" fill-opacity="0.5"/>
<circle cx="1119.67" cy="257.666" r="0.666017" fill="white" fill-opacity="0.4"/>
<circle cx="524.5" cy="40.5" r="0.5" fill="white" fill-opacity="0.3"/>
<circle cx="1048.74" cy="134.74" r="0.740366" fill="white" fill-opacity="0.4"/>
<circle cx="336.5" cy="92.5" r="0.5" fill="white" fill-opacity="0.6"/>
<circle cx="741.667" cy="188.667" r="0.666648" fill="white" fill-opacity="0.6"/>
<circle cx="439.527" cy="223.527" r="0.527093" fill="white" fill-opacity="0.4"/>
<circle cx="133.619" cy="143.619" r="0.619485" fill="white" fill-opacity="0.5"/>
<circle cx="331.689" cy="414.689" r="0.688639" fill="white" fill-opacity="0.4"/>
<circle cx="1000.5" cy="545.5" r="0.5" fill="white" fill-opacity="0.5"/>
<circle cx="984.5" cy="611.5" r="0.5" fill="white" fill-opacity="0.4"/>
<circle cx="152.5" cy="205.5" r="0.5" fill="white" fill-opacity="0.4"/>
<circle cx="370.545" cy="77.5453" r="0.545328" fill="white" fill-opacity="0.6"/>
<circle cx="477.591" cy="600.591" r="0.590716" fill="white" fill-opacity="0.6"/>
<circle cx="3.5" cy="636.5" r="0.5" fill="white" fill-opacity="0.5"/>
<circle cx="469.629" cy="154.629" r="0.629038" fill="white" fill-opacity="0.4"/>
<circle cx="305.5" cy="558.5" r="0.5" fill="white" fill-opacity="0.6"/>
<circle cx="291.73" cy="275.73" r="0.730337" fill="white" fill-opacity="0.3"/>
<circle cx="270.5" cy="201.5" r="0.5" fill="white" fill-opacity="0.6"/>
<circle cx="913.5" cy="175.5" r="0.5" fill="white" fill-opacity="0.6"/>
<circle cx="780.643" cy="255.643" r="0.642742" fill="white" fill-opacity="0.4"/>
<circle cx="530.5" cy="465.5" r="0.5" fill="white" fill-opacity="0.5"/>
<circle cx="246.5" cy="522.5" r="0.5" fill="white" fill-opacity="0.4"/>
<circle cx="821.5" cy="269.5" r="0.5" fill="white" fill-opacity="0.4"/>
<circle cx="304.557" cy="310.557" r="0.556701" fill="white" fill-opacity="0.5"/>
<circle cx="561.554" cy="531.554" r="0.554277" fill="white" fill-opacity="0.5"/>
<circle cx="422.5" cy="528.5" r="0.5" fill="white" fill-opacity="0.4"/>
<circle cx="123.679" cy="299.679" r="0.679389" fill="white" fill-opacity="0.6"/>
<circle cx="347.5" cy="413.5" r="0.5" fill="white" fill-opacity="0.5"/>
<circle cx="690.602" cy="157.602" r="0.601689" fill="white" fill-opacity="0.4"/>
<circle cx="806.5" cy="381.5" r="0.5" fill="white" fill-opacity="0.5"/>
<circle cx="516.701" cy="405.701" r="0.700981" fill="white" fill-opacity="0.5"/>
<circle cx="802.5" cy="548.5" r="0.5" fill="white" fill-opacity="0.4"/>
<circle cx="295.5" cy="569.5" r="0.5" fill="white" fill-opacity="0.6"/>
<circle cx="645.5" cy="330.5" r="0.5" fill="white" fill-opacity="0.5"/>
<circle cx="369.686" cy="297.686" r="0.686183" fill="white" fill-opacity="0.4"/>
<circle cx="911.518" cy="38.5184" r="0.518408" fill="white" fill-opacity="0.3"/>
<circle cx="908.561" cy="39.5607" r="0.560663" fill="white" fill-opacity="0.4"/>
<circle cx="416.713" cy="401.713" r="0.712693" fill="white" fill-opacity="0.3"/>
<circle cx="297.647" cy="513.647" r="0.647229" fill="white" fill-opacity="0.4"/>
<circle cx="746.529" cy="113.529" r="0.529359" fill="white" fill-opacity="0.5"/>
<circle cx="432.594" cy="561.594" r="0.593507" fill="white" fill-opacity="0.4"/>
<circle cx="186.623" cy="342.623" r="0.623172" fill="white" fill-opacity="0.3"/>
<circle cx="727.586" cy="286.586" r="0.585558" fill="white" fill-opacity="0.5"/>
<circle cx="852.5" cy="226.5" r="0.5" fill="white" fill-opacity="0.3"/>
<circle cx="990.5" cy="409.5" r="0.5" fill="white" fill-opacity="0.4"/>
<circle cx="716.5" cy="142.5" r="0.5" fill="white" fill-opacity="0.3"/>
<circle cx="131.611" cy="278.611" r="0.611064" fill="white" fill-opacity="0.4"/>
<circle cx="356.5" cy="482.5" r="0.5" fill="white" fill-opacity="0.4"/>
<circle cx="37.5" cy="362.5" r="0.5" fill="white" fill-opacity="0.5"/>
<circle cx="86.5" cy="158.5" r="0.5" fill="white" fill-opacity="0.4"/>
<circle cx="213.677" cy="442.677" r="0.677244" fill="white" fill-opacity="0.6"/>
<circle cx="908.511" cy="308.511" r="0.51071" fill="white" fill-opacity="0.4"/>
<circle cx="198.684" cy="72.6845" r="0.684471" fill="white" fill-opacity="0.3"/>
<circle cx="260.66" cy="168.66" r="0.659595" fill="white" fill-opacity="0.4"/>
<circle cx="454.5" cy="543.5" r="0.5" fill="white" fill-opacity="0.5"/>
<circle cx="470.5" cy="584.5" r="0.5" fill="white" fill-opacity="0.5"/>
<circle cx="23.7062" cy="506.706" r="0.706205" fill="white" fill-opacity="0.4"/>
<circle cx="402.5" cy="366.5" r="0.5" fill="white" fill-opacity="0.5"/>
<circle cx="380.614" cy="353.614" r="0.614026" fill="white" fill-opacity="0.5"/>
<circle cx="582.5" cy="307.5" r="0.5" fill="white" fill-opacity="0.4"/>
<circle cx="1085.5" cy="269.5" r="0.5" fill="white" fill-opacity="0.5"/>
<circle cx="82.5" cy="600.5" r="0.5" fill="white" fill-opacity="0.4"/>
<circle cx="12.5" cy="553.5" r="0.5" fill="white" fill-opacity="0.4"/>
<circle cx="969.5" cy="592.5" r="0.5" fill="white" fill-opacity="0.4"/>
<circle cx="960.5" cy="197.5" r="0.5" fill="white" fill-opacity="0.5"/>
<circle cx="583.68" cy="96.6801" r="0.680121" fill="white" fill-opacity="0.4"/>
<circle cx="443.5" cy="357.5" r="0.5" fill="white" fill-opacity="0.5"/>
<circle cx="659.5" cy="402.5" r="0.5" fill="white" fill-opacity="0.5"/>
<circle cx="879.651" cy="147.651" r="0.651355" fill="white" fill-opacity="0.5"/>
<circle cx="386.559" cy="335.559" r="0.559374" fill="white" fill-opacity="0.4"/>
<circle cx="981.5" cy="319.5" r="0.5" fill="white" fill-opacity="0.4"/>
<circle cx="340.5" cy="204.5" r="0.5" fill="white" fill-opacity="0.4"/>
<circle cx="381.5" cy="612.5" r="0.5" fill="white" fill-opacity="0.5"/>
<circle cx="613.5" cy="103.5" r="0.5" fill="white" fill-opacity="0.5"/>
<circle cx="443.642" cy="445.642" r="0.642402" fill="white" fill-opacity="0.4"/>
<circle cx="583.684" cy="55.684" r="0.683973" fill="white" fill-opacity="0.4"/>
<circle cx="1071.74" cy="550.738" r="0.738119" fill="white" fill-opacity="0.3"/>
<circle cx="750.5" cy="476.5" r="0.5" fill="white" fill-opacity="0.3"/>
<circle cx="1003.65" cy="410.65" r="0.650388" fill="white" fill-opacity="0.4"/>
<circle cx="175.723" cy="245.723" r="0.722506" fill="white" fill-opacity="0.4"/>
<circle cx="333.615" cy="193.615" r="0.614516" fill="white" fill-opacity="0.5"/>
<circle cx="350.5" cy="492.5" r="0.5" fill="white" fill-opacity="0.4"/>
<circle cx="1061.5" cy="505.5" r="0.5" fill="white" fill-opacity="0.4"/>
<circle cx="44.5" cy="176.5" r="0.5" fill="white" fill-opacity="0.5"/>
<circle cx="1077.5" cy="398.5" r="0.5" fill="white" fill-opacity="0.6"/>
<circle cx="146.5" cy="47.5" r="0.5" fill="white" fill-opacity="0.4"/>
<circle cx="455.737" cy="74.7368" r="0.736799" fill="white" fill-opacity="0.6"/>
<circle cx="920.594" cy="149.594" r="0.594452" fill="white" fill-opacity="0.4"/>
<circle cx="403.693" cy="513.693" r="0.69268" fill="white" fill-opacity="0.3"/>
<circle cx="82.5" cy="219.5" r="0.5" fill="white" fill-opacity="0.4"/>
<circle cx="518.5" cy="90.5" r="0.5" fill="white" fill-opacity="0.6"/>
<circle cx="771.5" cy="364.5" r="0.5" fill="white" fill-opacity="0.5"/>
<circle cx="407.5" cy="594.5" r="0.5" fill="white" fill-opacity="0.6"/>
<circle cx="90.5" cy="169.5" r="0.5" fill="white" fill-opacity="0.4"/>
<circle cx="369.5" cy="635.5" r="0.5" fill="white" fill-opacity="0.5"/>
<circle cx="846.5" cy="333.5" r="0.5" fill="white" fill-opacity="0.6"/>
<circle cx="807.5" cy="130.5" r="0.5" fill="white" fill-opacity="0.5"/>
<circle cx="615.5" cy="212.5" r="0.5" fill="white" fill-opacity="0.5"/>
<circle cx="385.5" cy="13.5" r="0.5" fill="white" fill-opacity="0.5"/>
<circle cx="647.506" cy="244.506" r="0.505851" fill="white" fill-opacity="0.6"/>
<circle cx="263.672" cy="343.672" r="0.672336" fill="white" fill-opacity="0.4"/>
<circle cx="749.5" cy="89.5" r="0.5" fill="white" fill-opacity="0.6"/>
<circle cx="0.572293" cy="347.572" r="0.572293" fill="white" fill-opacity="0.5"/>
<circle cx="249.569" cy="41.5689" r="0.568928" fill="white" fill-opacity="0.3"/>
<circle cx="380.69" cy="120.69" r="0.689612" fill="white" fill-opacity="0.5"/>
<circle cx="929.5" cy="499.5" r="0.5" fill="white" fill-opacity="0.4"/>
<circle cx="462.731" cy="252.731" r="0.730537" fill="white" fill-opacity="0.6"/>
<circle cx="963.5" cy="627.5" r="0.5" fill="white" fill-opacity="0.3"/>
<circle cx="523.5" cy="178.5" r="0.5" fill="white" fill-opacity="0.4"/>
<circle cx="857.5" cy="595.5" r="0.5" fill="white" fill-opacity="0.3"/>
<circle cx="712.5" cy="581.5" r="0.5" fill="white" fill-opacity="0.3"/>
<circle cx="935.5" cy="3.5" r="0.5" fill="white" fill-opacity="0.5"/>
<circle cx="488.5" cy="357.5" r="0.5" fill="white" fill-opacity="0.4"/>
<circle cx="561.5" cy="234.5" r="0.5" fill="white" fill-opacity="0.6"/>
<circle cx="308.5" cy="76.5" r="0.5" fill="white" fill-opacity="0.6"/>
<g filter="url(#filter2_d_18_7382)">
<circle cx="141.71" cy="553.71" r="0.709717" fill="white" fill-opacity="0.6" shape-rendering="crispEdges"/>
</g>
<circle cx="1017.5" cy="514.5" r="0.5" fill="white" fill-opacity="0.4"/>
<circle cx="54.5" cy="95.5" r="0.5" fill="white" fill-opacity="0.3"/>
<circle cx="191.542" cy="274.542" r="0.542016" fill="white" fill-opacity="0.5"/>
<circle cx="855.5" cy="580.5" r="0.5" fill="white" fill-opacity="0.5"/>
<circle cx="387.5" cy="141.5" r="0.5" fill="white" fill-opacity="0.3"/>
<circle cx="74.5524" cy="493.552" r="0.552424" fill="white" fill-opacity="0.3"/>
<circle cx="675.527" cy="585.527" r="0.527252" fill="white" fill-opacity="0.5"/>
<circle cx="136.527" cy="105.527" r="0.52661" fill="white" fill-opacity="0.4"/>
<circle cx="786.5" cy="601.5" r="0.5" fill="white" fill-opacity="0.4"/>
<circle cx="911.5" cy="232.5" r="0.5" fill="white" fill-opacity="0.4"/>
<circle cx="440.5" cy="309.5" r="0.5" fill="white" fill-opacity="0.4"/>
<circle cx="349.67" cy="546.67" r="0.669935" fill="white" fill-opacity="0.4"/>
<circle cx="956.5" cy="381.5" r="0.5" fill="white" fill-opacity="0.6"/>
<circle cx="563.5" cy="580.5" r="0.5" fill="white" fill-opacity="0.4"/>
<circle cx="1069.72" cy="186.717" r="0.717013" fill="white" fill-opacity="0.4"/>
<circle cx="569.5" cy="609.5" r="0.5" fill="white" fill-opacity="0.4"/>
<circle cx="288.552" cy="26.5524" r="0.552356" fill="white" fill-opacity="0.5"/>
<circle cx="588.56" cy="535.56" r="0.560416" fill="white" fill-opacity="0.5"/>
<circle cx="484.609" cy="461.609" r="0.609416" fill="white" fill-opacity="0.5"/>
<circle cx="692.64" cy="39.6402" r="0.640165" fill="white" fill-opacity="0.4"/>
<circle cx="488.5" cy="550.5" r="0.5" fill="white" fill-opacity="0.6"/>
<circle cx="149.5" cy="141.5" r="0.5" fill="white" fill-opacity="0.4"/>
<circle cx="334.723" cy="124.723" r="0.722792" fill="white" fill-opacity="0.5"/>
<circle cx="319.538" cy="24.5381" r="0.538109" fill="white" fill-opacity="0.6"/>
<circle cx="197.519" cy="622.519" r="0.519013" fill="white" fill-opacity="0.4"/>
<circle cx="898.702" cy="236.702" r="0.701759" fill="white" fill-opacity="0.4"/>
<circle cx="499.555" cy="492.555" r="0.554496" fill="white" fill-opacity="0.5"/>
<circle cx="747.5" cy="486.5" r="0.5" fill="white" fill-opacity="0.5"/>
<circle cx="203.5" cy="78.5" r="0.5" fill="white" fill-opacity="0.6"/>
<circle cx="678.5" cy="540.5" r="0.5" fill="white" fill-opacity="0.4"/>
<circle cx="207.5" cy="91.5" r="0.5" fill="white" fill-opacity="0.5"/>
<circle cx="735.562" cy="89.5617" r="0.561718" fill="white" fill-opacity="0.4"/>
<circle cx="471.681" cy="260.681" r="0.681498" fill="white" fill-opacity="0.3"/>
<circle cx="930.5" cy="114.5" r="0.5" fill="white" fill-opacity="0.5"/>
<circle cx="980.5" cy="495.5" r="0.5" fill="white" fill-opacity="0.4"/>
<circle cx="410.749" cy="576.749" r="0.748859" fill="white" fill-opacity="0.5"/>
<circle cx="505.677" cy="584.677" r="0.677196" fill="white" fill-opacity="0.4"/>
<circle cx="180.722" cy="118.722" r="0.722293" fill="white" fill-opacity="0.6"/>
<circle cx="1032.5" cy="173.5" r="0.5" fill="white" fill-opacity="0.5"/>
<circle cx="371.693" cy="121.693" r="0.692696" fill="white" fill-opacity="0.5"/>
<circle cx="960.575" cy="561.575" r="0.575012" fill="white" fill-opacity="0.5"/>
<circle cx="643.5" cy="305.5" r="0.5" fill="white" fill-opacity="0.6"/>
<circle cx="34.5" cy="550.5" r="0.5" fill="white" fill-opacity="0.3"/>
<circle cx="500.565" cy="544.565" r="0.565393" fill="white" fill-opacity="0.4"/>
<circle cx="488.5" cy="35.5" r="0.5" fill="white" fill-opacity="0.4"/>
<circle cx="212.5" cy="279.5" r="0.5" fill="white" fill-opacity="0.6"/>
<circle cx="909.713" cy="319.713" r="0.712746" fill="white" fill-opacity="0.3"/>
<circle cx="660.622" cy="547.622" r="0.622186" fill="white" fill-opacity="0.4"/>
<circle cx="812.621" cy="494.621" r="0.620681" fill="white" fill-opacity="0.6"/>
<circle cx="989.662" cy="322.662" r="0.66231" fill="white" fill-opacity="0.3"/>
<circle cx="335.5" cy="200.5" r="0.5" fill="white" fill-opacity="0.6"/>
<circle cx="869.528" cy="175.528" r="0.52842" fill="white" fill-opacity="0.4"/>
<circle cx="748.672" cy="275.672" r="0.671731" fill="white" fill-opacity="0.4"/>
<circle cx="988.5" cy="87.5" r="0.5" fill="white" fill-opacity="0.4"/>
<circle cx="754.5" cy="422.5" r="0.5" fill="white" fill-opacity="0.4"/>
<circle cx="938.5" cy="375.5" r="0.5" fill="white" fill-opacity="0.6"/>
<circle cx="67.661" cy="53.661" r="0.660999" fill="white" fill-opacity="0.6"/>
<circle cx="667.531" cy="17.5313" r="0.53133" fill="white" fill-opacity="0.5"/>
<circle cx="95.5" cy="217.5" r="0.5" fill="white" fill-opacity="0.5"/>
<circle cx="221.564" cy="285.564" r="0.564078" fill="white" fill-opacity="0.6"/>
<circle cx="391.658" cy="455.658" r="0.657687" fill="white" fill-opacity="0.3"/>
<circle cx="670.726" cy="211.726" r="0.726093" fill="white" fill-opacity="0.6"/>
<circle cx="527.603" cy="87.6027" r="0.60272" fill="white" fill-opacity="0.4"/>
<circle cx="431.598" cy="222.598" r="0.598136" fill="white" fill-opacity="0.5"/>
<circle cx="398.5" cy="333.5" r="0.5" fill="white" fill-opacity="0.4"/>
<circle cx="534.511" cy="91.5106" r="0.510589" fill="white" fill-opacity="0.6"/>
<circle cx="1057.61" cy="93.6141" r="0.614091" fill="white" fill-opacity="0.3"/>
<circle cx="167.712" cy="312.712" r="0.711736" fill="white" fill-opacity="0.4"/>
<circle cx="171.5" cy="451.5" r="0.5" fill="white" fill-opacity="0.6"/>
<circle cx="161.5" cy="476.5" r="0.5" fill="white" fill-opacity="0.6"/>
<circle cx="726.634" cy="273.634" r="0.633596" fill="white" fill-opacity="0.5"/>
<circle cx="163.5" cy="609.5" r="0.5" fill="white" fill-opacity="0.5"/>
<circle cx="257.59" cy="352.59" r="0.589996" fill="white" fill-opacity="0.3"/>
<circle cx="107.662" cy="375.662" r="0.66174" fill="white" fill-opacity="0.4"/>
<circle cx="1051.5" cy="450.5" r="0.5" fill="white" fill-opacity="0.5"/>
<circle cx="117.5" cy="41.5" r="0.5" fill="white" fill-opacity="0.6"/>
<circle cx="1085.54" cy="464.537" r="0.536753" fill="white" fill-opacity="0.5"/>
<circle cx="757.543" cy="611.543" r="0.542659" fill="white" fill-opacity="0.3"/>
<circle cx="41.5" cy="8.5" r="0.5" fill="white" fill-opacity="0.4"/>
<circle cx="894.543" cy="433.543" r="0.543095" fill="white" fill-opacity="0.5"/>
<circle cx="172.5" cy="395.5" r="0.5" fill="white" fill-opacity="0.3"/>
<circle cx="0.581512" cy="485.582" r="0.581512" fill="white" fill-opacity="0.6"/>
<circle cx="80.6148" cy="383.615" r="0.61477" fill="white" fill-opacity="0.6"/>
<circle cx="781.528" cy="127.528" r="0.528207" fill="white" fill-opacity="0.5"/>
<circle cx="777.5" cy="296.5" r="0.5" fill="white" fill-opacity="0.5"/>
<circle cx="620.5" cy="119.5" r="0.5" fill="white" fill-opacity="0.6"/>
<circle cx="861.5" cy="140.5" r="0.5" fill="white" fill-opacity="0.6"/>
<circle cx="274.502" cy="37.5017" r="0.501713" fill="white" fill-opacity="0.3"/>
<circle cx="562.679" cy="110.679" r="0.679195" fill="white" fill-opacity="0.5"/>
<circle cx="527.72" cy="351.72" r="0.719608" fill="white" fill-opacity="0.5"/>
<circle cx="1065.58" cy="493.579" r="0.579026" fill="white" fill-opacity="0.6"/>
<circle cx="321.5" cy="550.5" r="0.5" fill="white" fill-opacity="0.3"/>
<circle cx="539.5" cy="447.5" r="0.5" fill="white" fill-opacity="0.4"/>
<circle cx="218.5" cy="72.5" r="0.5" fill="white" fill-opacity="0.4"/>
<circle cx="973.5" cy="371.5" r="0.5" fill="white" fill-opacity="0.4"/>
<circle cx="523.591" cy="199.591" r="0.590848" fill="white" fill-opacity="0.6"/>
<circle cx="842.644" cy="368.644" r="0.644424" fill="white" fill-opacity="0.4"/>
<circle cx="391.5" cy="291.5" r="0.5" fill="white" fill-opacity="0.6"/>
<circle cx="871.598" cy="533.598" r="0.598435" fill="white" fill-opacity="0.6"/>
<circle cx="348.5" cy="299.5" r="0.5" fill="white" fill-opacity="0.5"/>
<circle cx="818.529" cy="603.529" r="0.528804" fill="white" fill-opacity="0.5"/>
<circle cx="156.5" cy="189.5" r="0.5" fill="white" fill-opacity="0.4"/>
<circle cx="163.744" cy="399.744" r="0.743789" fill="white" fill-opacity="0.4"/>
<circle cx="5.66795" cy="352.668" r="0.667952" fill="white" fill-opacity="0.5"/>
<g filter="url(#filter3_d_18_7382)">
<circle cx="996.664" cy="25.6644" r="0.6644" fill="white" fill-opacity="0.6" shape-rendering="crispEdges"/>
</g>
<circle cx="782.728" cy="378.728" r="0.728148" fill="white" fill-opacity="0.4"/>
<circle cx="675.58" cy="616.58" r="0.579901" fill="white" fill-opacity="0.6"/>
<circle cx="482.5" cy="459.5" r="0.5" fill="white" fill-opacity="0.6"/>
<circle cx="766.565" cy="5.56541" r="0.565405" fill="white" fill-opacity="0.6"/>
<circle cx="439.5" cy="237.5" r="0.5" fill="white" fill-opacity="0.5"/>
<circle cx="726.5" cy="517.5" r="0.5" fill="white" fill-opacity="0.6"/>
<circle cx="731.692" cy="609.692" r="0.691774" fill="white" fill-opacity="0.6"/>
<circle cx="110.5" cy="237.5" r="0.5" fill="white" fill-opacity="0.4"/>
<circle cx="1006.5" cy="233.5" r="0.5" fill="white" fill-opacity="0.4"/>
<circle cx="833.5" cy="143.5" r="0.5" fill="white" fill-opacity="0.6"/>
<circle cx="802.542" cy="240.542" r="0.541642" fill="white" fill-opacity="0.5"/>
<circle cx="205.702" cy="285.702" r="0.702448" fill="white" fill-opacity="0.4"/>
<circle cx="95.6968" cy="390.697" r="0.696776" fill="white" fill-opacity="0.6"/>
<circle cx="691.625" cy="105.626" r="0.625519" fill="white" fill-opacity="0.4"/>
<circle cx="121.5" cy="493.5" r="0.5" fill="white" fill-opacity="0.4"/>
<circle cx="137.571" cy="113.571" r="0.570846" fill="white" fill-opacity="0.4"/>
<circle cx="811.577" cy="204.577" r="0.577184" fill="white" fill-opacity="0.4"/>
<circle cx="413.502" cy="30.5023" r="0.502316" fill="white" fill-opacity="0.4"/>
<circle cx="378.5" cy="218.5" r="0.5" fill="white" fill-opacity="0.6"/>
<circle cx="338.5" cy="91.5" r="0.5" fill="white" fill-opacity="0.3"/>
<circle cx="232.5" cy="36.5" r="0.5" fill="white" fill-opacity="0.6"/>
<circle cx="181.702" cy="415.702" r="0.701738" fill="white" fill-opacity="0.3"/>
<circle cx="114.516" cy="14.5156" r="0.515613" fill="white" fill-opacity="0.4"/>
<circle cx="351.5" cy="226.5" r="0.5" fill="white" fill-opacity="0.5"/>
<circle cx="338.5" cy="441.5" r="0.5" fill="white" fill-opacity="0.4"/>
<circle cx="746.5" cy="553.5" r="0.5" fill="white" fill-opacity="0.6"/>
<circle cx="527.715" cy="268.715" r="0.714554" fill="white" fill-opacity="0.4"/>
<circle cx="314.5" cy="422.5" r="0.5" fill="white" fill-opacity="0.3"/>
<circle cx="607.5" cy="386.5" r="0.5" fill="white" fill-opacity="0.5"/>
<circle cx="431.651" cy="617.651" r="0.65105" fill="white" fill-opacity="0.5"/>
<circle cx="927.5" cy="128.5" r="0.5" fill="white" fill-opacity="0.6"/>
<circle cx="58.5" cy="442.5" r="0.5" fill="white" fill-opacity="0.6"/>
<circle cx="131.618" cy="396.618" r="0.618183" fill="white" fill-opacity="0.4"/>
<circle cx="549.5" cy="557.5" r="0.5" fill="white" fill-opacity="0.5"/>
<circle cx="51.5" cy="492.5" r="0.5" fill="white" fill-opacity="0.6"/>
<circle cx="252.5" cy="588.5" r="0.5" fill="white" fill-opacity="0.4"/>
<circle cx="355.541" cy="530.541" r="0.541229" fill="white" fill-opacity="0.6"/>
<defs>
<filter id="filter0_d_18_7382" x="1101" y="341" width="31" height="31" filterUnits="userSpaceOnUse" color-interpolation-filters="sRGB">
<feFlood flood-opacity="0" result="BackgroundImageFix"/>
<feColorMatrix in="SourceAlpha" type="matrix" values="0 0 0 0 0 0 0 0 0 0 0 0 0 0 0 0 0 0 127 0" result="hardAlpha"/>
<feMorphology radius="3" operator="dilate" in="SourceAlpha" result="effect1_dropShadow_18_7382"/>
<feOffset/>
<feGaussianBlur stdDeviation="6"/>
<feComposite in2="hardAlpha" operator="out"/>
<feColorMatrix type="matrix" values="0 0 0 0 1 0 0 0 0 1 0 0 0 0 1 0 0 0 0.3 0"/>
<feBlend mode="normal" in2="BackgroundImageFix" result="effect1_dropShadow_18_7382"/>
<feBlend mode="normal" in="SourceGraphic" in2="effect1_dropShadow_18_7382" result="shape"/>
</filter>
<filter id="filter1_d_18_7382" x="23" y="313" width="31.2932" height="31.2935" filterUnits="userSpaceOnUse" color-interpolation-filters="sRGB">
<feFlood flood-opacity="0" result="BackgroundImageFix"/>
<feColorMatrix in="SourceAlpha" type="matrix" values="0 0 0 0 0 0 0 0 0 0 0 0 0 0 0 0 0 0 127 0" result="hardAlpha"/>
<feMorphology radius="3" operator="dilate" in="SourceAlpha" result="effect1_dropShadow_18_7382"/>
<feOffset/>
<feGaussianBlur stdDeviation="6"/>
<feComposite in2="hardAlpha" operator="out"/>
<feColorMatrix type="matrix" values="0 0 0 0 1 0 0 0 0 1 0 0 0 0 1 0 0 0 0.3 0"/>
<feBlend mode="normal" in2="BackgroundImageFix" result="effect1_dropShadow_18_7382"/>
<feBlend mode="normal" in="SourceGraphic" in2="effect1_dropShadow_18_7382" result="shape"/>
</filter>
<filter id="filter2_d_18_7382" x="126" y="538" width="31.4194" height="31.4194" filterUnits="userSpaceOnUse" color-interpolation-filters="sRGB">
<feFlood flood-opacity="0" result="BackgroundImageFix"/>
<feColorMatrix in="SourceAlpha" type="matrix" values="0 0 0 0 0 0 0 0 0 0 0 0 0 0 0 0 0 0 127 0" result="hardAlpha"/>
<feMorphology radius="3" operator="dilate" in="SourceAlpha" result="effect1_dropShadow_18_7382"/>
<feOffset/>
<feGaussianBlur stdDeviation="6"/>
<feComposite in2="hardAlpha" operator="out"/>
<feColorMatrix type="matrix" values="0 0 0 0 1 0 0 0 0 1 0 0 0 0 1 0 0 0 0.3 0"/>
<feBlend mode="normal" in2="BackgroundImageFix" result="effect1_dropShadow_18_7382"/>
<feBlend mode="normal" in="SourceGraphic" in2="effect1_dropShadow_18_7382" result="shape"/>
</filter>
<filter id="filter3_d_18_7382" x="981" y="10" width="31.3289" height="31.3286" filterUnits="userSpaceOnUse" color-interpolation-filters="sRGB">
<feFlood flood-opacity="0" result="BackgroundImageFix"/>
<feColorMatrix in="SourceAlpha" type="matrix" values="0 0 0 0 0 0 0 0 0 0 0 0 0 0 0 0 0 0 127 0" result="hardAlpha"/>
<feMorphology radius="3" operator="dilate" in="SourceAlpha" result="effect1_dropShadow_18_7382"/>
<feOffset/>
<feGaussianBlur stdDeviation="6"/>
<feComposite in2="hardAlpha" operator="out"/>
<feColorMatrix type="matrix" values="0 0 0 0 1 0 0 0 0 1 0 0 0 0 1 0 0 0 0.3 0"/>
<feBlend mode="normal" in2="BackgroundImageFix" result="effect1_dropShadow_18_7382"/>
<feBlend mode="normal" in="SourceGraphic" in2="effect1_dropShadow_18_7382" result="shape"/>
</filter>
</defs>
</svg>
