<svg width="24" height="24" viewBox="0 0 24 24" fill="none" xmlns="http://www.w3.org/2000/svg">
<g opacity="0.8">
<path d="M20.25 9.75V7.25C20.25 5.317 18.683 3.75 16.75 3.75H7.25C5.317 3.75 3.75 5.317 3.75 7.25V9.75M20.25 9.75V16.75C20.25 18.683 18.683 20.25 16.75 20.25H7.25C5.317 20.25 3.75 18.683 3.75 16.75V9.75M20.25 9.75H3.75" stroke="#F8F8F8" stroke-opacity="0.95" stroke-width="1.5" stroke-linecap="square" stroke-linejoin="round"/>
<path d="M12.5 13.5C12.5 13.7761 12.2761 14 12 14C11.7239 14 11.5 13.7761 11.5 13.5C11.5 13.2239 11.7239 13 12 13C12.2761 13 12.5 13.2239 12.5 13.5Z" fill="#F8F8F8" fill-opacity="0.95"/>
<path d="M12 14.25C12.4142 14.25 12.75 13.9142 12.75 13.5C12.75 13.0858 12.4142 12.75 12 12.75C11.5858 12.75 11.25 13.0858 11.25 13.5C11.25 13.9142 11.5858 14.25 12 14.25Z" stroke="#F8F8F8" stroke-opacity="0.95" stroke-width="0.5"/>
</g>
</svg>
